<svg version="1.1" xmlns="http://www.w3.org/2000/svg" xmlns:xlink="http://www.w3.org/1999/xlink" width="277.91064453125" height="390"><defs/><g><g transform="translate(-134,-246) scale(1,1)"><rect fill="#C0C0C0" stroke="none" x="151" y="263" width="257.91064453125" height="370" opacity="0.2"/></g><g transform="translate(-134,-246) scale(1,1)"><rect fill="#ffffff" stroke="none" x="144" y="256" width="257.91064453125" height="370"/></g><g transform="translate(-134,-246) scale(1,1)"><path fill="none" stroke="#000000" d="M 144 256 L 401.91064453125 256 L 401.91064453125 626 L 144 626 L 144 256 Z Z" stroke-miterlimit="10"/></g><g transform="translate(-134,-246) scale(1,1)"><path fill="none" stroke="#000000" d="M 144 281 L 401.91064453125 281" stroke-miterlimit="10"/></g><g transform="translate(-134,-246) scale(1,1)"><path fill="none" stroke="#000000" d="M 144 379 L 401.91064453125 379" stroke-miterlimit="10"/></g><g transform="translate(-134,-246) scale(1,1)"><g><path fill="none" stroke="none"/><text fill="#000000" stroke="none" font-family="Arial" font-size="13px" font-style="normal" font-weight="bold" text-decoration="none" x="252.001708984375" y="275.5">Caesar</text></g></g><g transform="translate(-134,-246) scale(1,1)"><g><path fill="none" stroke="none"/><text fill="#000000" stroke="none" font-family="Arial" font-size="13px" font-style="normal" font-weight="normal" text-decoration="none" x="149" y="298.5">-QString text</text></g></g><g transform="translate(-134,-246) scale(1,1)"><g><path fill="none" stroke="none"/><text fill="#000000" stroke="none" font-family="Arial" font-size="13px" font-style="normal" font-weight="normal" text-decoration="none" x="149" y="313.5">-int shift</text></g></g><g transform="translate(-134,-246) scale(1,1)"><g><path fill="none" stroke="none"/><text fill="#000000" stroke="none" font-family="Arial" font-size="13px" font-style="normal" font-weight="normal" text-decoration="none" x="149" y="328.5">-QString alphabet</text></g></g><g transform="translate(-134,-246) scale(1,1)"><g><path fill="none" stroke="none"/><text fill="#000000" stroke="none" font-family="Arial" font-size="13px" font-style="normal" font-weight="normal" text-decoration="none" x="149" y="343.5">-int alphabetAmountOfLetters</text></g></g><g transform="translate(-134,-246) scale(1,1)"><g><path fill="none" stroke="none"/><text fill="#000000" stroke="none" font-family="Arial" font-size="13px" font-style="normal" font-weight="normal" text-decoration="none" x="149" y="358.5">-float* alphabetFrequency</text></g></g><g transform="translate(-134,-246) scale(1,1)"><g><path fill="none" stroke="none"/><text fill="#000000" stroke="none" font-family="Arial" font-size="13px" font-style="normal" font-weight="normal" text-decoration="none" x="149" y="373.5">-QChar language</text></g></g><g transform="translate(-134,-246) scale(1,1)"><g><path fill="none" stroke="none"/><text fill="#000000" stroke="none" font-family="Arial" font-size="13px" font-style="normal" font-weight="normal" text-decoration="none" x="149" y="396.5">+Caesar(QWidget *parent = nullptr)</text></g></g><g transform="translate(-134,-246) scale(1,1)"><g><path fill="none" stroke="none"/><text fill="#000000" stroke="none" font-family="Arial" font-size="13px" font-style="normal" font-weight="normal" text-decoration="none" x="149" y="411.5">+EncodeText(QString text, int shift)</text></g></g><g transform="translate(-134,-246) scale(1,1)"><g><path fill="none" stroke="none"/><text fill="#000000" stroke="none" font-family="Arial" font-size="13px" font-style="normal" font-weight="normal" text-decoration="none" x="149" y="426.5">+SetText(QString text)</text></g></g><g transform="translate(-134,-246) scale(1,1)"><g><path fill="none" stroke="none"/><text fill="#000000" stroke="none" font-family="Arial" font-size="13px" font-style="normal" font-weight="normal" text-decoration="none" x="149" y="441.5">+GetText()</text></g></g><g transform="translate(-134,-246) scale(1,1)"><g><path fill="none" stroke="none"/><text fill="#000000" stroke="none" font-family="Arial" font-size="13px" font-style="normal" font-weight="normal" text-decoration="none" x="149" y="456.5">+GetUserTextInput()</text></g></g><g transform="translate(-134,-246) scale(1,1)"><g><path fill="none" stroke="none"/><text fill="#000000" stroke="none" font-family="Arial" font-size="13px" font-style="normal" font-weight="normal" text-decoration="none" x="149" y="471.5">+SetUserTextOutput()</text></g></g><g transform="translate(-134,-246) scale(1,1)"><g><path fill="none" stroke="none"/><text fill="#000000" stroke="none" font-family="Arial" font-size="13px" font-style="normal" font-weight="normal" text-decoration="none" x="149" y="486.5">+SetShift(int shift)</text></g></g><g transform="translate(-134,-246) scale(1,1)"><g><path fill="none" stroke="none"/><text fill="#000000" stroke="none" font-family="Arial" font-size="13px" font-style="normal" font-weight="normal" text-decoration="none" x="149" y="501.5">+GetShift()</text></g></g><g transform="translate(-134,-246) scale(1,1)"><g><path fill="none" stroke="none"/><text fill="#000000" stroke="none" font-family="Arial" font-size="13px" font-style="normal" font-weight="normal" text-decoration="none" x="149" y="516.5">+GetShiftInput()</text></g></g><g transform="translate(-134,-246) scale(1,1)"><g><path fill="none" stroke="none"/><text fill="#000000" stroke="none" font-family="Arial" font-size="13px" font-style="normal" font-weight="normal" text-decoration="none" x="149" y="531.5">+SetUpLanguageEnvironment()</text></g></g><g transform="translate(-134,-246) scale(1,1)"><g><path fill="none" stroke="none"/><text fill="#000000" stroke="none" font-family="Arial" font-size="13px" font-style="normal" font-weight="normal" text-decoration="none" x="149" y="546.5">-EncodeTextSlot()</text></g></g><g transform="translate(-134,-246) scale(1,1)"><g><path fill="none" stroke="none"/><text fill="#000000" stroke="none" font-family="Arial" font-size="13px" font-style="normal" font-weight="normal" text-decoration="none" x="149" y="561.5">+MechanicalDecodeText(QString text)</text></g></g><g transform="translate(-134,-246) scale(1,1)"><g><path fill="none" stroke="none"/><text fill="#000000" stroke="none" font-family="Arial" font-size="13px" font-style="normal" font-weight="normal" text-decoration="none" x="149" y="576.5">+AlgoDecodeText(QString text)</text></g></g><g transform="translate(-134,-246) scale(1,1)"><g><path fill="none" stroke="none"/><text fill="#000000" stroke="none" font-family="Arial" font-size="13px" font-style="normal" font-weight="normal" text-decoration="none" x="149" y="591.5">-DecodeTextSlot()</text></g></g></g></svg>