<svg version="1.1" xmlns="http://www.w3.org/2000/svg" xmlns:xlink="http://www.w3.org/1999/xlink" width="1148" height="388"><defs/><g><g transform="translate(-150,-110) scale(1,1)"><rect fill="#C0C0C0" stroke="none" x="351" y="127" width="944" height="368" opacity="0.2"/></g><g transform="translate(-150,-110) scale(1,1)"><rect fill="#ffffff" stroke="none" x="344" y="120" width="944" height="368"/></g><g transform="translate(-150,-110) scale(1,1)"><path fill="none" stroke="#000000" d="M 344 120 L 1288 120 L 1288 488 L 344 488 L 344 120 Z Z" stroke-miterlimit="10"/></g><g transform="translate(-150,-110) scale(1,1)"><g><path fill="none" stroke="none"/><text fill="#000000" stroke="none" font-family="Arial" font-size="13px" font-style="normal" font-weight="bold" text-decoration="none" x="747.71826171875" y="139.5">Дешифрование текста</text></g></g><g transform="translate(-150,-110) scale(1,1)"><path fill="#ffffff" stroke="none" d="M 201.91423313210228 273.68 C 201.91423313210228 268.886167936 205.80007545704774 265 210.593505859375 265 C 215.38693626170226 265 219.27277858664772 268.886167936 219.27277858664772 273.68 C 219.27277858664772 278.473832064 215.38693626170226 282.36 210.593505859375 282.36 C 205.80007545704774 282.36 201.91423313210228 278.473832064 201.91423313210228 273.68 Z"/></g><g transform="translate(-150,-110) scale(1,1)"><path fill="none" stroke="#000000" d="M 201.91423313210228 273.68 C 201.91423313210228 268.886167936 205.80007545704774 265 210.593505859375 265 C 215.38693626170226 265 219.27277858664772 268.886167936 219.27277858664772 273.68 C 219.27277858664772 278.473832064 215.38693626170226 282.36 210.593505859375 282.36 C 205.80007545704774 282.36 201.91423313210228 278.473832064 201.91423313210228 273.68 Z" stroke-miterlimit="10"/></g><g transform="translate(-150,-110) scale(1,1)"><path fill="none" stroke="#000000" d="M 210.593505859375 282.36 L 210.593505859375 299.64" stroke-miterlimit="10"/></g><g transform="translate(-150,-110) scale(1,1)"><path fill="none" stroke="#000000" d="M 201.40368767755683 288.84 L 219.78332404119317 288.84" stroke-miterlimit="10"/></g><g transform="translate(-150,-110) scale(1,1)"><path fill="none" stroke="#000000" d="M 210.593505859375 299.64 L 197.82986949573865 317" stroke-miterlimit="10"/></g><g transform="translate(-150,-110) scale(1,1)"><path fill="none" stroke="#000000" d="M 210.593505859375 299.64 L 223.35714222301135 317" stroke-miterlimit="10"/></g><g transform="translate(-150,-110) scale(1,1)"><g><path fill="none" stroke="none"/><text fill="#000000" stroke="none" font-family="Arial" font-size="13px" font-style="normal" font-weight="bold" text-decoration="none" x="168.413330078125" y="337.5">Пользователь</text></g></g><g transform="translate(-150,-110) scale(1,1)"><path fill="#C0C0C0" stroke="none" d="M 983 192 C 983 182.6111584 1049.9334224 175 1132.5 175 C 1215.0665776 175 1282 182.6111584 1282 192 C 1282 201.3888416 1215.0665776 209 1132.5 209 C 1049.9334224 209 983 201.3888416 983 192 Z" opacity="0.2"/></g><g transform="translate(-150,-110) scale(1,1)"><path fill="#ffffff" stroke="none" d="M 976 185 C 976 175.6111584 1042.9334224 168 1125.5 168 C 1208.0665776 168 1275 175.6111584 1275 185 C 1275 194.3888416 1208.0665776 202 1125.5 202 C 1042.9334224 202 976 194.3888416 976 185 Z"/></g><g transform="translate(-150,-110) scale(1,1)"><path fill="none" stroke="#000000" d="M 976 185 C 976 175.6111584 1042.9334224 168 1125.5 168 C 1208.0665776 168 1275 175.6111584 1275 185 C 1275 194.3888416 1208.0665776 202 1125.5 202 C 1042.9334224 202 976 194.3888416 976 185 Z" stroke-miterlimit="10"/></g><g transform="translate(-150,-110) scale(1,1)"><g><path fill="none" stroke="none"/><text fill="#000000" stroke="none" font-family="Arial" font-size="13px" font-style="normal" font-weight="bold" text-decoration="none" x="1032.084716796875" y="192">Выбор языка для шифрования</text></g></g><g transform="translate(-150,-110) scale(1,1)"><path fill="#C0C0C0" stroke="none" d="M 1087 288 C 1087 278.6111584 1114.3106272 271 1148 271 C 1181.6893728 271 1209 278.6111584 1209 288 C 1209 297.3888416 1181.6893728 305 1148 305 C 1114.3106272 305 1087 297.3888416 1087 288 Z" opacity="0.2"/></g><g transform="translate(-150,-110) scale(1,1)"><path fill="#ffffff" stroke="none" d="M 1080 281 C 1080 271.6111584 1107.3106272 264 1141 264 C 1174.6893728 264 1202 271.6111584 1202 281 C 1202 290.3888416 1174.6893728 298 1141 298 C 1107.3106272 298 1080 290.3888416 1080 281 Z"/></g><g transform="translate(-150,-110) scale(1,1)"><path fill="none" stroke="#000000" d="M 1080 281 C 1080 271.6111584 1107.3106272 264 1141 264 C 1174.6893728 264 1202 271.6111584 1202 281 C 1202 290.3888416 1174.6893728 298 1141 298 C 1107.3106272 298 1080 290.3888416 1080 281 Z" stroke-miterlimit="10"/></g><g transform="translate(-150,-110) scale(1,1)"><g><path fill="none" stroke="none"/><text fill="#000000" stroke="none" font-family="Arial" font-size="13px" font-style="normal" font-weight="bold" text-decoration="none" x="1105.0087890625" y="288">Ввод текста</text></g></g><g transform="translate(-150,-110) scale(1,1)"><path fill="#C0C0C0" stroke="none" d="M 575 430 C 575 420.6111584 632.5314032 413 703.5 413 C 774.4685968 413 832 420.6111584 832 430 C 832 439.3888416 774.4685968 447 703.5 447 C 632.5314032 447 575 439.3888416 575 430 Z" opacity="0.2"/></g><g transform="translate(-150,-110) scale(1,1)"><path fill="#ffffff" stroke="none" d="M 568 423 C 568 413.6111584 625.5314032 406 696.5 406 C 767.4685968 406 825 413.6111584 825 423 C 825 432.3888416 767.4685968 440 696.5 440 C 625.5314032 440 568 432.3888416 568 423 Z"/></g><g transform="translate(-150,-110) scale(1,1)"><path fill="none" stroke="#000000" d="M 568 423 C 568 413.6111584 625.5314032 406 696.5 406 C 767.4685968 406 825 413.6111584 825 423 C 825 432.3888416 767.4685968 440 696.5 440 C 625.5314032 440 568 432.3888416 568 423 Z" stroke-miterlimit="10"/></g><g transform="translate(-150,-110) scale(1,1)"><g><path fill="none" stroke="none"/><text fill="#000000" stroke="none" font-family="Arial" font-size="13px" font-style="normal" font-weight="bold" text-decoration="none" x="616.230712890625" y="430">Просмотр поля результата</text></g></g><g transform="translate(-150,-110) scale(1,1)"><path fill="none" stroke="#000000" d="M 262 316 L 623 405" stroke-miterlimit="10"/></g><g transform="translate(-150,-110) scale(1,1)"><path fill="none" stroke="#000000" d="M 612.1251375935695 406.6544992116062 L 623 405 L 614.1404034359479 398.4802186599369" stroke-miterlimit="10"/></g><g transform="translate(-150,-110) scale(1,1)"><path fill="#C0C0C0" stroke="none" d="M 567 248 C 567 238.6111584 615.8009568 231 676 231 C 736.1990432 231 785 238.6111584 785 248 C 785 257.3888416 736.1990432 265 676 265 C 615.8009568 265 567 257.3888416 567 248 Z" opacity="0.2"/></g><g transform="translate(-150,-110) scale(1,1)"><path fill="#ffffff" stroke="none" d="M 560 241 C 560 231.6111584 608.8009568 224 669 224 C 729.1990432 224 778 231.6111584 778 241 C 778 250.3888416 729.1990432 258 669 258 C 608.8009568 258 560 250.3888416 560 241 Z"/></g><g transform="translate(-150,-110) scale(1,1)"><path fill="none" stroke="#000000" d="M 560 241 C 560 231.6111584 608.8009568 224 669 224 C 729.1990432 224 778 231.6111584 778 241 C 778 250.3888416 729.1990432 258 669 258 C 608.8009568 258 560 250.3888416 560 241 Z" stroke-miterlimit="10"/></g><g transform="translate(-150,-110) scale(1,1)"><g><path fill="none" stroke="none"/><text fill="#000000" stroke="none" font-family="Arial" font-size="13px" font-style="normal" font-weight="bold" text-decoration="none" x="600.71826171875" y="248">Дешифрование текста</text></g></g><g transform="translate(-150,-110) scale(1,1)"><path fill="none" stroke="#000000" d="M 779 227 L 978 203" stroke-miterlimit="10" stroke-dasharray="3"/></g><g transform="translate(-150,-110) scale(1,1)"><path fill="none" stroke="#000000" d="M 968.4144652334767 208.39606553330975 L 978 203 L 967.4064088349617 200.0375978956223" stroke-miterlimit="10"/></g><g transform="translate(-150,-110) scale(1,1)"><g><path fill="none" stroke="none"/><text fill="#000000" stroke="none" font-family="Arial" font-size="13px" font-style="normal" font-weight="normal" text-decoration="none" x="846.5" y="191.5">«include»</text></g></g><g transform="translate(-150,-110) scale(1,1)"><path fill="none" stroke="#000000" d="M 779 250 L 1079 276" stroke-miterlimit="10" stroke-dasharray="3"/></g><g transform="translate(-150,-110) scale(1,1)"><path fill="none" stroke="#000000" d="M 1068.5118155423604 279.3163212725136 L 1079 276 L 1069.2387403872801 270.92872690805524" stroke-miterlimit="10"/></g><g transform="translate(-150,-110) scale(1,1)"><g><path fill="none" stroke="none"/><text fill="#000000" stroke="none" font-family="Arial" font-size="13px" font-style="normal" font-weight="normal" text-decoration="none" x="903.5" y="235.5">«include»</text></g></g><g transform="translate(-150,-110) scale(1,1)"><path fill="#C0C0C0" stroke="none" d="M 855 352 C 855 342.6111584 950.3633376 335 1068 335 C 1185.6366624 335 1281 342.6111584 1281 352 C 1281 361.3888416 1185.6366624 369 1068 369 C 950.3633376 369 855 361.3888416 855 352 Z" opacity="0.2"/></g><g transform="translate(-150,-110) scale(1,1)"><path fill="#ffffff" stroke="none" d="M 848 345 C 848 335.6111584 943.3633376 328 1061 328 C 1178.6366624 328 1274 335.6111584 1274 345 C 1274 354.3888416 1178.6366624 362 1061 362 C 943.3633376 362 848 354.3888416 848 345 Z"/></g><g transform="translate(-150,-110) scale(1,1)"><path fill="none" stroke="#000000" d="M 848 345 C 848 335.6111584 943.3633376 328 1061 328 C 1178.6366624 328 1274 335.6111584 1274 345 C 1274 354.3888416 1178.6366624 362 1061 362 C 943.3633376 362 848 354.3888416 848 345 Z" stroke-miterlimit="10"/></g><g transform="translate(-150,-110) scale(1,1)"><g><path fill="none" stroke="none"/><text fill="#000000" stroke="none" font-family="Arial" font-size="13px" font-style="normal" font-weight="bold" text-decoration="none" x="924.712646484375" y="352">Дешифровка с помощью частотного анализа</text></g></g><g transform="translate(-150,-110) scale(1,1)"><path fill="none" stroke="#000000" d="M 737 259 L 993 327" stroke-miterlimit="10" stroke-dasharray="3"/></g><g transform="translate(-150,-110) scale(1,1)"><path fill="none" stroke="#000000" d="M 982.0972475074058 328.459447869994 L 993 327 L 984.2586042932271 320.3225752645491" stroke-miterlimit="10"/></g><g transform="translate(-150,-110) scale(1,1)"><g><path fill="none" stroke="none"/><text fill="#000000" stroke="none" font-family="Arial" font-size="13px" font-style="normal" font-weight="normal" text-decoration="none" x="847.5" y="284.5">«extend»</text></g></g><g transform="translate(-150,-110) scale(1,1)"><path fill="none" stroke="#000000" d="M 262 296 L 559 256" stroke-miterlimit="10"/></g><g transform="translate(-150,-110) scale(1,1)"><path fill="none" stroke="#000000" d="M 549.4901245310191 261.528315165082 L 559 256 L 548.3663934258781 253.18461170940995" stroke-miterlimit="10"/></g></g></svg>