<svg version="1.1" xmlns="http://www.w3.org/2000/svg" xmlns:xlink="http://www.w3.org/1999/xlink" width="1316" height="388"><defs/><g><g transform="translate(-150,-118) scale(1,1)"><rect fill="#C0C0C0" stroke="none" x="295" y="135" width="1168" height="368" opacity="0.2"/></g><g transform="translate(-150,-118) scale(1,1)"><rect fill="#ffffff" stroke="none" x="288" y="128" width="1168" height="368"/></g><g transform="translate(-150,-118) scale(1,1)"><path fill="none" stroke="#000000" d="M 288 128 L 1456 128 L 1456 496 L 288 496 L 288 128 Z Z" stroke-miterlimit="10"/></g><g transform="translate(-150,-118) scale(1,1)"><g><path fill="none" stroke="none"/><text fill="#000000" stroke="none" font-family="Arial" font-size="13px" font-style="normal" font-weight="bold" text-decoration="none" x="810.99267578125" y="147.5">Шифрование текста</text></g></g><g transform="translate(-150,-118) scale(1,1)"><path fill="#ffffff" stroke="none" d="M 201.91423313210228 257.68 C 201.91423313210228 252.886167936 205.80007545704774 249 210.593505859375 249 C 215.38693626170226 249 219.27277858664772 252.886167936 219.27277858664772 257.68 C 219.27277858664772 262.473832064 215.38693626170226 266.36 210.593505859375 266.36 C 205.80007545704774 266.36 201.91423313210228 262.473832064 201.91423313210228 257.68 Z"/></g><g transform="translate(-150,-118) scale(1,1)"><path fill="none" stroke="#000000" d="M 201.91423313210228 257.68 C 201.91423313210228 252.886167936 205.80007545704774 249 210.593505859375 249 C 215.38693626170226 249 219.27277858664772 252.886167936 219.27277858664772 257.68 C 219.27277858664772 262.473832064 215.38693626170226 266.36 210.593505859375 266.36 C 205.80007545704774 266.36 201.91423313210228 262.473832064 201.91423313210228 257.68 Z" stroke-miterlimit="10"/></g><g transform="translate(-150,-118) scale(1,1)"><path fill="none" stroke="#000000" d="M 210.593505859375 266.36 L 210.593505859375 283.64" stroke-miterlimit="10"/></g><g transform="translate(-150,-118) scale(1,1)"><path fill="none" stroke="#000000" d="M 201.40368767755683 272.84 L 219.78332404119317 272.84" stroke-miterlimit="10"/></g><g transform="translate(-150,-118) scale(1,1)"><path fill="none" stroke="#000000" d="M 210.593505859375 283.64 L 197.82986949573865 301" stroke-miterlimit="10"/></g><g transform="translate(-150,-118) scale(1,1)"><path fill="none" stroke="#000000" d="M 210.593505859375 283.64 L 223.35714222301135 301" stroke-miterlimit="10"/></g><g transform="translate(-150,-118) scale(1,1)"><g><path fill="none" stroke="none"/><text fill="#000000" stroke="none" font-family="Arial" font-size="13px" font-style="normal" font-weight="bold" text-decoration="none" x="168.413330078125" y="321.5">Пользователь</text></g></g><g transform="translate(-150,-118) scale(1,1)"><path fill="#C0C0C0" stroke="none" d="M 519 232 C 519 222.6111584 563.3238048 215 618 215 C 672.6761952 215 717 222.6111584 717 232 C 717 241.3888416 672.6761952 249 618 249 C 563.3238048 249 519 241.3888416 519 232 Z" opacity="0.2"/></g><g transform="translate(-150,-118) scale(1,1)"><path fill="#ffffff" stroke="none" d="M 512 225 C 512 215.6111584 556.3238048 208 611 208 C 665.6761952 208 710 215.6111584 710 225 C 710 234.3888416 665.6761952 242 611 242 C 556.3238048 242 512 234.3888416 512 225 Z"/></g><g transform="translate(-150,-118) scale(1,1)"><path fill="none" stroke="#000000" d="M 512 225 C 512 215.6111584 556.3238048 208 611 208 C 665.6761952 208 710 215.6111584 710 225 C 710 234.3888416 665.6761952 242 611 242 C 556.3238048 242 512 234.3888416 512 225 Z" stroke-miterlimit="10"/></g><g transform="translate(-150,-118) scale(1,1)"><g><path fill="none" stroke="none"/><text fill="#000000" stroke="none" font-family="Arial" font-size="13px" font-style="normal" font-weight="bold" text-decoration="none" x="549.99267578125" y="232">Шифрование текста</text></g></g><g transform="translate(-150,-118) scale(1,1)"><path fill="#C0C0C0" stroke="none" d="M 543 392 C 543 382.6111584 600.5314032 375 671.5 375 C 742.4685968 375 800 382.6111584 800 392 C 800 401.3888416 742.4685968 409 671.5 409 C 600.5314032 409 543 401.3888416 543 392 Z" opacity="0.2"/></g><g transform="translate(-150,-118) scale(1,1)"><path fill="#ffffff" stroke="none" d="M 536 385 C 536 375.6111584 593.5314032 368 664.5 368 C 735.4685968 368 793 375.6111584 793 385 C 793 394.3888416 735.4685968 402 664.5 402 C 593.5314032 402 536 394.3888416 536 385 Z"/></g><g transform="translate(-150,-118) scale(1,1)"><path fill="none" stroke="#000000" d="M 536 385 C 536 375.6111584 593.5314032 368 664.5 368 C 735.4685968 368 793 375.6111584 793 385 C 793 394.3888416 735.4685968 402 664.5 402 C 593.5314032 402 536 394.3888416 536 385 Z" stroke-miterlimit="10"/></g><g transform="translate(-150,-118) scale(1,1)"><g><path fill="none" stroke="none"/><text fill="#000000" stroke="none" font-family="Arial" font-size="13px" font-style="normal" font-weight="bold" text-decoration="none" x="584.230712890625" y="392">Просмотр поля результата</text></g></g><g transform="translate(-150,-118) scale(1,1)"><path fill="none" stroke="#000000" d="M 262 279 L 511 240" stroke-miterlimit="10"/></g><g transform="translate(-150,-118) scale(1,1)"><path fill="none" stroke="#000000" d="M 501.61111288323593 245.7313871539673 L 511 240 L 500.30835152976533 237.41375697411684" stroke-miterlimit="10"/></g><g transform="translate(-150,-118) scale(1,1)"><path fill="none" stroke="#000000" d="M 262 298 L 581 367" stroke-miterlimit="10"/></g><g transform="translate(-150,-118) scale(1,1)"><path fill="none" stroke="#000000" d="M 570.1770893428594 368.9658598392442 L 581 367 L 571.9569736589679 360.73711930535165" stroke-miterlimit="10"/></g><g transform="translate(-150,-118) scale(1,1)"><path fill="#C0C0C0" stroke="none" d="M 927 216 C 927 206.6111584 993.9334224 199 1076.5 199 C 1159.0665776 199 1226 206.6111584 1226 216 C 1226 225.3888416 1159.0665776 233 1076.5 233 C 993.9334224 233 927 225.3888416 927 216 Z" opacity="0.2"/></g><g transform="translate(-150,-118) scale(1,1)"><path fill="#ffffff" stroke="none" d="M 920 209 C 920 199.6111584 986.9334224 192 1069.5 192 C 1152.0665776 192 1219 199.6111584 1219 209 C 1219 218.3888416 1152.0665776 226 1069.5 226 C 986.9334224 226 920 218.3888416 920 209 Z"/></g><g transform="translate(-150,-118) scale(1,1)"><path fill="none" stroke="#000000" d="M 920 209 C 920 199.6111584 986.9334224 192 1069.5 192 C 1152.0665776 192 1219 199.6111584 1219 209 C 1219 218.3888416 1152.0665776 226 1069.5 226 C 986.9334224 226 920 218.3888416 920 209 Z" stroke-miterlimit="10"/></g><g transform="translate(-150,-118) scale(1,1)"><g><path fill="none" stroke="none"/><text fill="#000000" stroke="none" font-family="Arial" font-size="13px" font-style="normal" font-weight="bold" text-decoration="none" x="976.084716796875" y="216">Выбор языка для шифрования</text></g></g><g transform="translate(-150,-118) scale(1,1)"><path fill="#C0C0C0" stroke="none" d="M 1007 280 C 1007 270.6111584 1076.8435712 263 1163 263 C 1249.1564288 263 1319 270.6111584 1319 280 C 1319 289.3888416 1249.1564288 297 1163 297 C 1076.8435712 297 1007 289.3888416 1007 280 Z" opacity="0.2"/></g><g transform="translate(-150,-118) scale(1,1)"><path fill="#ffffff" stroke="none" d="M 1000 273 C 1000 263.6111584 1069.8435712 256 1156 256 C 1242.1564288 256 1312 263.6111584 1312 273 C 1312 282.3888416 1242.1564288 290 1156 290 C 1069.8435712 290 1000 282.3888416 1000 273 Z"/></g><g transform="translate(-150,-118) scale(1,1)"><path fill="none" stroke="#000000" d="M 1000 273 C 1000 263.6111584 1069.8435712 256 1156 256 C 1242.1564288 256 1312 263.6111584 1312 273 C 1312 282.3888416 1242.1564288 290 1156 290 C 1069.8435712 290 1000 282.3888416 1000 273 Z" stroke-miterlimit="10"/></g><g transform="translate(-150,-118) scale(1,1)"><g><path fill="none" stroke="none"/><text fill="#000000" stroke="none" font-family="Arial" font-size="13px" font-style="normal" font-weight="bold" text-decoration="none" x="1089.654296875" y="280">Ввод значения сдвига</text></g></g><g transform="translate(-150,-118) scale(1,1)"><path fill="#C0C0C0" stroke="none" d="M 1103 352 C 1103 342.6111584 1130.5344848 335 1164.5 335 C 1198.4655152 335 1226 342.6111584 1226 352 C 1226 361.3888416 1198.4655152 369 1164.5 369 C 1130.5344848 369 1103 361.3888416 1103 352 Z" opacity="0.2"/></g><g transform="translate(-150,-118) scale(1,1)"><path fill="#ffffff" stroke="none" d="M 1096 345 C 1096 335.6111584 1123.5344848 328 1157.5 328 C 1191.4655152 328 1219 335.6111584 1219 345 C 1219 354.3888416 1191.4655152 362 1157.5 362 C 1123.5344848 362 1096 354.3888416 1096 345 Z"/></g><g transform="translate(-150,-118) scale(1,1)"><path fill="none" stroke="#000000" d="M 1096 345 C 1096 335.6111584 1123.5344848 328 1157.5 328 C 1191.4655152 328 1219 335.6111584 1219 345 C 1219 354.3888416 1191.4655152 362 1157.5 362 C 1123.5344848 362 1096 354.3888416 1096 345 Z" stroke-miterlimit="10"/></g><g transform="translate(-150,-118) scale(1,1)"><g><path fill="none" stroke="none"/><text fill="#000000" stroke="none" font-family="Arial" font-size="13px" font-style="normal" font-weight="bold" text-decoration="none" x="1121.5087890625" y="352">Ввод текста</text></g></g><g transform="translate(-150,-118) scale(1,1)"><path fill="none" stroke="#000000" d="M 711 222 L 919 214" stroke-miterlimit="10" stroke-dasharray="3"/></g><g transform="translate(-150,-118) scale(1,1)"><path fill="none" stroke="#000000" d="M 909.0066184942785 218.59699098118583 L 919 214 L 908.6830486744702 210.18417566617" stroke-miterlimit="10"/></g><g transform="translate(-150,-118) scale(1,1)"><g><path fill="none" stroke="none"/><text fill="#000000" stroke="none" font-family="Arial" font-size="13px" font-style="normal" font-weight="normal" text-decoration="none" x="775.5" y="203.5">«include»</text></g></g><g transform="translate(-150,-118) scale(1,1)"><path fill="none" stroke="#000000" d="M 711 234 L 999 259" stroke-miterlimit="10" stroke-dasharray="3"/></g><g transform="translate(-150,-118) scale(1,1)"><path fill="none" stroke="#000000" d="M 988.5113584811312 262.3148754258133 L 999 259 L 989.2394395641918 253.92738134895433" stroke-miterlimit="10"/></g><g transform="translate(-150,-118) scale(1,1)"><g><path fill="none" stroke="none"/><text fill="#000000" stroke="none" font-family="Arial" font-size="13px" font-style="normal" font-weight="normal" text-decoration="none" x="887.5" y="244.5">«include»</text></g></g><g transform="translate(-150,-118) scale(1,1)"><path fill="none" stroke="#000000" d="M 693 243 L 1095 331" stroke-miterlimit="10" stroke-dasharray="3"/></g><g transform="translate(-150,-118) scale(1,1)"><path fill="none" stroke="#000000" d="M 1084.1722341533864 332.9389395996028 L 1095 331 L 1085.9725760055692 324.7146506839497" stroke-miterlimit="10"/></g><g transform="translate(-150,-118) scale(1,1)"><g><path fill="none" stroke="none"/><text fill="#000000" stroke="none" font-family="Arial" font-size="13px" font-style="normal" font-weight="normal" text-decoration="none" x="863.5" y="275.5">«include»</text></g></g></g></svg>